<?xml version="1.0" encoding="UTF-8" standalone="no"?>
<!DOCTYPE svg PUBLIC "-//W3C//DTD SVG 1.1//EN"
 "http://www.w3.org/Graphics/SVG/1.1/DTD/svg11.dtd">
<!-- Generated by graphviz version 2.43.0 (0)
 -->
<!-- Title: fixed_symbol_resolution Pages: 1 -->
<svg width="889pt" height="116pt"
 viewBox="0.00 0.00 889.00 116.12" xmlns="http://www.w3.org/2000/svg" xmlns:xlink="http://www.w3.org/1999/xlink">
<g id="graph0" class="graph" transform="scale(1 1) rotate(0) translate(4 112.12)">
<title>fixed_symbol_resolution</title>
<polygon fill="white" stroke="transparent" points="-4,4 -4,-112.12 885,-112.12 885,4 -4,4"/>
<!-- main.cpp -->
<g id="node1" class="node">
<title>main.cpp</title>
<polygon fill="lightblue" stroke="black" points="82,-74.12 0,-74.12 0,-38.12 82,-38.12 82,-74.12"/>
<text text-anchor="middle" x="41" y="-52.42" font-family="Times,serif" font-size="14.00">main.cpp</text>
</g>
<!-- util.h -->
<g id="node2" class="node">
<title>util.h</title>
<polygon fill="khaki" stroke="black" points="408.5,-106.12 307.5,-106.12 307.5,-68.12 414.5,-68.12 414.5,-100.12 408.5,-106.12"/>
<polyline fill="none" stroke="black" points="408.5,-106.12 408.5,-100.12 "/>
<polyline fill="none" stroke="black" points="414.5,-100.12 408.5,-100.12 "/>
<text text-anchor="middle" x="361" y="-90.92" font-family="Times,serif" font-size="14.00">util.h</text>
<text text-anchor="middle" x="361" y="-75.92" font-family="Times,serif" font-size="14.00">(declaration)</text>
</g>
<!-- main.cpp&#45;&gt;util.h -->
<g id="edge1" class="edge">
<title>main.cpp&#45;&gt;util.h</title>
<path fill="none" stroke="black" d="M82.27,-60.05C136.42,-65.33 233.24,-74.77 297.05,-80.99"/>
<polygon fill="black" stroke="black" points="297.09,-84.51 307.38,-82 297.77,-77.54 297.09,-84.51"/>
<text text-anchor="middle" x="178" y="-79.92" font-family="Times,serif" font-size="14.00">#include &quot;util.h&quot;</text>
</g>
<!-- iostream -->
<g id="node4" class="node">
<title>iostream</title>
<polygon fill="khaki" stroke="black" points="442,-47.12 274,-47.12 274,-9.12 448,-9.12 448,-41.12 442,-47.12"/>
<polyline fill="none" stroke="black" points="442,-47.12 442,-41.12 "/>
<polyline fill="none" stroke="black" points="448,-41.12 442,-41.12 "/>
<text text-anchor="middle" x="361" y="-31.93" font-family="Times,serif" font-size="14.00">&lt;iostream&gt;</text>
<text text-anchor="middle" x="361" y="-16.93" font-family="Times,serif" font-size="14.00">(std::cout declaration)</text>
</g>
<!-- main.cpp&#45;&gt;iostream -->
<g id="edge3" class="edge">
<title>main.cpp&#45;&gt;iostream</title>
<path fill="none" stroke="black" d="M82.06,-45.45C88.04,-44.15 94.16,-42.98 100,-42.12 153.88,-34.24 214.61,-30.68 263.83,-29.11"/>
<polygon fill="black" stroke="black" points="263.94,-32.61 273.83,-28.82 263.73,-25.61 263.94,-32.61"/>
<text text-anchor="middle" x="178" y="-45.92" font-family="Times,serif" font-size="14.00">#include &lt;iostream&gt;</text>
</g>
<!-- util.cpp -->
<g id="node3" class="node">
<title>util.cpp</title>
<polygon fill="lightgreen" stroke="black" points="819.5,-108.12 730.5,-108.12 730.5,-70.12 825.5,-70.12 825.5,-102.12 819.5,-108.12"/>
<polyline fill="none" stroke="black" points="819.5,-108.12 819.5,-102.12 "/>
<polyline fill="none" stroke="black" points="825.5,-102.12 819.5,-102.12 "/>
<text text-anchor="middle" x="778" y="-92.92" font-family="Times,serif" font-size="14.00">util.cpp</text>
<text text-anchor="middle" x="778" y="-77.92" font-family="Times,serif" font-size="14.00">(definition)</text>
</g>
<!-- util.h&#45;&gt;util.cpp -->
<g id="edge2" class="edge">
<title>util.h&#45;&gt;util.cpp</title>
<path fill="none" stroke="black" d="M414.56,-87.38C492.73,-87.76 639.06,-88.46 719.82,-88.85"/>
<polygon fill="black" stroke="black" points="720.28,-92.35 730.29,-88.9 720.31,-85.35 720.28,-92.35"/>
<text text-anchor="middle" x="561.5" y="-91.92" font-family="Times,serif" font-size="14.00">greet() 정의는 링커에서 연결</text>
</g>
<!-- libstdc++ -->
<g id="node5" class="node">
<title>libstdc++</title>
<path fill="lightgray" stroke="black" d="M881,-47.6C881,-50.24 834.83,-52.38 778,-52.38 721.17,-52.38 675,-50.24 675,-47.6 675,-47.6 675,-4.65 675,-4.65 675,-2.01 721.17,0.13 778,0.13 834.83,0.13 881,-2.01 881,-4.65 881,-4.65 881,-47.6 881,-47.6"/>
<path fill="none" stroke="black" d="M881,-47.6C881,-44.97 834.83,-42.83 778,-42.83 721.17,-42.83 675,-44.97 675,-47.6"/>
<text text-anchor="middle" x="778" y="-29.93" font-family="Times,serif" font-size="14.00">libstdc++.so</text>
<text text-anchor="middle" x="778" y="-14.93" font-family="Times,serif" font-size="14.00">(std::cout implementation)</text>
</g>
<!-- iostream&#45;&gt;libstdc++ -->
<g id="edge4" class="edge">
<title>iostream&#45;&gt;libstdc++</title>
<path fill="none" stroke="black" d="M448.24,-27.71C510.92,-27.41 596.35,-27 664.41,-26.67"/>
<polygon fill="black" stroke="black" points="664.77,-30.17 674.75,-26.62 664.74,-23.17 664.77,-30.17"/>
<text text-anchor="middle" x="561.5" y="-30.93" font-family="Times,serif" font-size="14.00">표준 라이브러리에서 링크</text>
</g>
</g>
</svg>
